<?xml version="1.0" standalone="no"?>
<!DOCTYPE svg PUBLIC "-//W3C//DTD SVG 20010904//EN"
 "http://www.w3.org/TR/2001/REC-SVG-20010904/DTD/svg10.dtd">
<svg version="1.0" xmlns="http://www.w3.org/2000/svg"
 width="200.000000pt" height="200.000000pt" viewBox="0 0 200.000000 200.000000"
 preserveAspectRatio="xMidYMid meet">

<g transform="translate(0.000000,200.000000) scale(0.100000,-0.100000)"
fill="#000000" stroke="none">
<path d="M0 1000 l0 -1000 1000 0 1000 0 0 1000 0 1000 -1000 0 -1000 0 0
-1000z m467 86 c13 -15 23 -31 23 -36 0 -17 -45 -15 -62 3 -23 22 -110 24
-132 1 -11 -10 -16 -34 -16 -69 0 -44 4 -57 22 -69 32 -23 90 -20 122 5 32 25
67 18 59 -12 -12 -43 -95 -68 -173 -50 -65 14 -80 38 -80 125 0 113 28 139
144 132 61 -3 73 -7 93 -30z m608 20 c41 -17 48 -43 43 -161 l-3 -80 -58 -9
c-72 -11 -143 0 -168 25 -12 12 -19 33 -19 57 0 59 24 74 120 80 55 3 80 9 80
17 0 25 -31 38 -92 37 -57 -1 -77 7 -78 30 0 19 130 22 175 4z m630 -1 c38
-15 55 -46 55 -101 l0 -34 -111 0 c-110 0 -110 0 -103 -22 3 -13 11 -29 16
-35 13 -16 110 -17 125 -2 7 7 23 9 38 5 26 -7 27 -8 10 -27 -42 -45 -173 -49
-214 -5 -27 29 -37 106 -21 164 9 34 18 46 43 57 42 19 119 19 162 0z m-911
-17 c9 -12 16 -42 16 -65 0 -35 -5 -46 -30 -64 -29 -22 -29 -22 -11 -48 34
-49 34 -51 4 -51 -22 0 -34 9 -53 40 -22 35 -29 40 -62 40 -38 0 -38 0 -38
-40 0 -36 -2 -40 -25 -40 l-25 0 0 125 0 125 104 0 c97 0 106 -2 120 -22z
m470 -80 c23 -54 44 -98 47 -98 3 0 23 44 45 98 36 86 43 97 67 100 15 2 27 2
27 0 0 -2 -22 -58 -49 -124 l-48 -119 -40 -3 -41 -3 -30 73 c-17 40 -40 97
-51 126 l-21 53 27 -3 c23 -3 31 -14 67 -100z"/>
<path d="M938 969 c-22 -13 -23 -55 -2 -63 9 -3 42 -6 75 -6 l59 0 0 34 c0 22
-6 36 -16 40 -25 9 -97 6 -116 -5z"/>
<path d="M1587 1073 c-24 -4 -47 -33 -47 -59 0 -2 38 -4 85 -4 76 0 85 2 85
19 0 10 -6 23 -12 28 -16 13 -75 21 -111 16z"/>
<path d="M620 1025 l0 -45 58 0 c72 0 84 8 80 51 l-3 34 -67 3 -68 3 0 -46z"/>
</g>
</svg>
