<?xml version="1.0" standalone="no"?>
<!DOCTYPE svg PUBLIC "-//W3C//DTD SVG 20010904//EN"
 "http://www.w3.org/TR/2001/REC-SVG-20010904/DTD/svg10.dtd">
<svg version="1.0" xmlns="http://www.w3.org/2000/svg"
 width="128.000000pt" height="53.000000pt" viewBox="0 0 128.000000 53.000000"
 preserveAspectRatio="xMidYMid meet">

<g transform="translate(0.000000,53.000000) scale(0.100000,-0.100000)"
fill="#000000" stroke="none">
<path d="M936 518 c-26 -7 -59 -30 -96 -67 l-57 -56 -19 40 c-10 22 -34 50
-53 62 -31 21 -46 23 -167 23 l-134 0 0 -260 0 -260 113 0 c61 0 129 5 149 10
40 12 94 66 104 105 6 25 7 25 46 -20 70 -79 159 -109 257 -85 194 46 264 298
123 439 -73 73 -163 96 -266 69z m-301 -132 c26 -40 6 -66 -50 -66 l-45 0 0
45 0 45 40 0 c31 0 43 -5 55 -24z m443 -6 c68 -42 89 -122 48 -185 -50 -76
-169 -76 -216 0 -71 114 55 253 168 185z m-323 -115 c0 -29 1 -29 -24 -13 -18
11 -18 13 -3 25 24 18 27 16 27 -12z m-115 -76 c19 -34 -11 -69 -60 -69 l-40
0 0 45 0 45 45 0 c35 0 47 -5 55 -21z"/>
<path d="M973 360 c-48 -19 -71 -98 -43 -150 15 -29 74 -53 111 -45 41 9 79
58 79 102 0 27 -8 43 -34 69 -35 35 -68 42 -113 24z"/>
<path d="M0 260 l0 -260 70 0 70 0 0 100 0 100 50 0 50 0 0 -100 0 -101 68 3
67 3 3 258 2 257 -70 0 -70 0 0 -95 0 -95 -50 0 -50 0 0 95 0 95 -70 0 -70 0
0 -260z"/>
</g>
</svg>
