<?xml version="1.0" standalone="no"?>
<!DOCTYPE svg PUBLIC "-//W3C//DTD SVG 20010904//EN"
 "http://www.w3.org/TR/2001/REC-SVG-20010904/DTD/svg10.dtd">
<svg version="1.0" xmlns="http://www.w3.org/2000/svg"
 width="736.000000pt" height="736.000000pt" viewBox="0 0 736.000000 736.000000"
 preserveAspectRatio="xMidYMid meet">

<g transform="translate(0.000000,736.000000) scale(0.100000,-0.100000)"
fill="#000000" stroke="none">
<path d="M5400 3835 l0 -525 85 0 85 0 0 97 0 97 42 43 c23 24 46 43 50 43 4
0 51 -63 104 -140 l98 -140 103 0 c84 0 102 3 96 13 -4 7 -62 88 -128 180
-119 165 -120 166 -158 167 -21 0 -37 4 -35 9 2 4 64 72 138 150 74 79 137
147 138 152 2 5 -43 9 -106 9 l-110 0 -35 -42 c-20 -24 -72 -81 -116 -128
l-80 -85 -1 313 0 312 -85 0 -85 0 0 -525z"/>
<path d="M1133 3996 c-107 -35 -195 -115 -235 -215 -23 -55 -23 -60 -23 -511
l0 -455 85 0 85 0 3 229 2 230 28 -33 27 -32 127 50 c163 64 201 84 252 131
181 167 134 471 -90 581 -53 26 -80 33 -142 36 -47 2 -93 -3 -119 -11z m187
-171 c59 -31 100 -101 100 -175 0 -61 -18 -106 -57 -143 -25 -23 -205 -105
-290 -131 l-23 -7 0 166 c0 116 4 175 14 198 16 40 77 95 114 103 15 3 32 7
37 9 16 5 78 -7 105 -20z"/>
<path d="M1891 3988 c-173 -59 -277 -257 -227 -434 62 -215 298 -324 501 -231
54 25 135 90 135 109 0 4 -29 27 -64 53 l-64 45 -31 -29 c-36 -34 -115 -56
-163 -46 -47 10 -105 50 -123 85 l-16 30 259 0 259 0 5 38 c8 58 -8 148 -36
206 -78 159 -264 233 -435 174z m219 -172 c19 -13 43 -38 53 -55 l18 -31 -171
0 -171 0 17 29 c51 86 170 112 254 57z"/>
<path d="M2680 4001 c-137 -45 -241 -174 -256 -316 -17 -159 88 -328 236 -380
23 -8 72 -15 109 -15 65 0 70 1 204 68 4 2 7 -8 7 -22 0 -26 0 -26 85 -26 l85
0 0 340 0 340 -85 0 c-83 0 -85 0 -85 -24 0 -14 -4 -28 -10 -31 -5 -3 -10 -2
-10 4 0 5 -25 22 -56 37 -59 29 -174 42 -224 25z m191 -176 c65 -34 102 -99
101 -181 -1 -89 -47 -154 -131 -182 -51 -18 -82 -15 -139 14 -116 58 -143 211
-53 306 61 65 146 82 222 43z"/>
<path d="M3473 3996 c-104 -34 -186 -106 -231 -205 -22 -47 -27 -70 -26 -141
0 -110 32 -186 110 -260 80 -76 129 -95 244 -95 87 0 101 3 162 33 58 28 138
98 138 120 0 4 -29 28 -64 55 l-63 47 -39 -39 c-124 -124 -318 -38 -317 140 1
66 19 104 67 147 80 70 192 62 260 -18 l26 -32 65 48 c36 26 65 52 65 56 0 20
-96 102 -148 126 -68 31 -184 40 -249 18z"/>
<path d="M4165 4001 c-149 -40 -259 -170 -272 -320 -13 -152 66 -290 207 -359
48 -24 67 -27 150 -27 82 0 103 4 151 26 79 37 133 90 171 167 30 61 33 75 33
162 0 82 -4 103 -27 152 -57 122 -173 199 -307 204 -42 2 -89 -1 -106 -5z
m137 -161 c183 -51 180 -331 -4 -381 -162 -43 -293 143 -206 292 30 50 57 73
109 87 46 14 58 14 101 2z"/>
<path d="M4926 3994 c-287 -91 -344 -467 -98 -642 136 -96 337 -78 456 42 26
25 46 49 46 53 -1 5 -29 29 -64 56 l-63 47 -40 -39 c-67 -68 -165 -76 -242
-21 -110 80 -102 258 15 326 84 49 182 33 237 -38 l25 -32 66 50 c36 27 66 52
66 56 0 18 -93 98 -144 123 -72 35 -184 44 -260 19z"/>
<path d="M6315 3947 c-39 -39 -44 -70 -20 -117 47 -90 185 -54 185 49 0 55
-32 90 -87 98 -39 5 -46 2 -78 -30z"/>
<path d="M6322 3665 c-76 -64 -33 -175 68 -175 44 0 90 49 90 97 0 45 -14 69
-50 88 -42 22 -74 19 -108 -10z"/>
<path d="M6335 3390 c-8 -13 5 -13 25 0 13 8 13 10 -2 10 -9 0 -20 -4 -23 -10z"/>
<path d="M6390 3390 c-11 -7 -11 -10 -2 -10 7 0 11 -4 7 -9 -3 -5 -1 -12 4
-16 6 -3 8 3 6 15 -6 30 10 24 44 -17 l31 -38 -16 33 c-8 17 -24 37 -34 42
-23 12 -21 12 -40 0z"/>
<path d="M6296 3344 c-4 -9 -4 -19 -1 -22 2 -3 7 3 11 12 4 9 4 19 1 22 -2 3
-7 -3 -11 -12z"/>
<path d="M6315 3320 c-7 -12 2 -30 16 -30 12 0 12 27 0 35 -5 3 -12 1 -16 -5z"/>
<path d="M6406 3308 c4 -19 2 -28 -7 -28 -7 0 -10 -3 -6 -6 3 -3 12 -2 20 3
14 7 14 11 1 33 l-14 25 6 -27z"/>
<path d="M6440 3300 c0 -5 5 -10 11 -10 5 0 7 5 4 10 -3 6 -8 10 -11 10 -2 0
-4 -4 -4 -10z"/>
<path d="M6466 3283 c-6 -14 -5 -15 5 -6 7 7 10 15 7 18 -3 3 -9 -2 -12 -12z"/>
<path d="M6300 3260 c0 -16 43 -38 74 -38 19 0 24 3 15 9 -10 6 -5 9 16 9 22
0 26 -3 15 -10 -8 -5 -12 -11 -9 -14 2 -3 18 6 34 19 17 13 24 24 18 25 -7 0
-13 -4 -13 -10 0 -5 -5 -10 -11 -10 -6 0 -9 7 -5 15 4 12 2 13 -17 3 -68 -35
-70 -35 -97 -8 -11 11 -20 16 -20 10z"/>
<path d="M6314 3093 c-18 -17 -24 -28 -16 -31 7 -2 10 -8 7 -13 -4 -5 -1 -17
5 -26 10 -16 10 -15 5 4 -3 12 -1 24 5 28 5 3 10 12 10 18 0 7 -4 6 -10 -3 -7
-10 -10 -11 -10 -2 0 7 11 17 25 22 14 5 25 14 25 20 0 17 -16 11 -46 -17z"/>
<path d="M6370 3110 c0 -5 5 -10 10 -10 6 0 10 5 10 10 0 6 -4 10 -10 10 -5 0
-10 -4 -10 -10z"/>
<path d="M6434 3095 c14 -14 28 -25 32 -25 4 0 -3 11 -16 25 -13 14 -27 25
-32 25 -5 0 2 -11 16 -25z"/>
<path d="M6380 3059 c-22 -18 -23 -20 -5 -17 11 1 26 -1 34 -6 10 -7 12 -6 6
4 -6 10 -4 12 10 6 18 -7 18 -6 0 14 -10 11 -19 20 -19 20 -1 0 -12 -10 -26
-21z"/>
<path d="M6459 3043 c-10 -11 -10 -14 -1 -9 15 9 15 -5 0 -41 -18 -41 -48 -59
-48 -29 0 8 -4 17 -9 20 -4 3 -6 -6 -3 -19 3 -20 0 -25 -15 -25 -25 0 -72 36
-83 64 -7 18 -9 18 -9 3 -1 -23 40 -64 73 -73 57 -14 119 40 114 100 -3 31 -2
30 -19 9z"/>
</g>
</svg>
