<?xml version="1.0" standalone="no"?>
<!DOCTYPE svg PUBLIC "-//W3C//DTD SVG 20010904//EN"
 "http://www.w3.org/TR/2001/REC-SVG-20010904/DTD/svg10.dtd">
<svg version="1.0" xmlns="http://www.w3.org/2000/svg"
 width="240.000000pt" height="240.000000pt" viewBox="0 0 240.000000 240.000000"
 preserveAspectRatio="xMidYMid meet">

<g transform="translate(0.000000,240.000000) scale(0.100000,-0.100000)"
fill="#000000" stroke="none">
<path d="M0 1200 l0 -1200 1200 0 1200 0 0 1200 0 1200 -1200 0 -1200 0 0
-1200z m695 236 l35 -15 0 -76 0 -75 -42 21 c-49 25 -133 31 -133 10 0 -9 28
-24 72 -38 40 -14 86 -37 102 -52 l30 -28 3 121 3 121 78 3 77 3 0 -51 0 -50
55 0 56 0 -3 -57 -3 -58 -53 -3 -53 -3 3 -52 c3 -48 5 -52 30 -55 41 -5 68 14
68 47 0 49 30 119 66 150 44 39 96 49 151 29 24 -9 43 -12 43 -7 0 5 36 9 80
9 l79 0 3 -117 c2 -97 6 -118 18 -118 12 0 16 21 18 118 l3 117 80 0 c49 0 78
-4 74 -10 -3 -5 10 -3 29 5 79 33 156 9 186 -57 16 -36 20 -66 20 -175 l0
-133 -85 0 -84 0 -3 113 -3 112 -28 0 -29 0 -1 -110 -2 -110 -138 -7 c-114 -6
-144 -5 -168 7 -16 9 -29 20 -29 26 0 6 -14 1 -30 -11 -47 -34 -97 -36 -153
-7 l-49 25 -45 -20 c-108 -48 -210 -30 -243 44 l-17 38 -13 -26 c-8 -14 -35
-38 -60 -52 -38 -23 -57 -27 -120 -27 -70 0 -180 27 -180 43 0 13 36 121 42
127 3 4 23 -2 45 -13 47 -24 104 -35 122 -23 26 17 3 37 -60 55 -79 21 -124
51 -145 94 -31 67 11 157 90 193 50 23 162 25 211 5z m1309 -368 c35 -49 4
-108 -56 -108 -41 0 -68 25 -68 63 0 43 25 67 71 67 28 0 42 -6 53 -22z"/>
<path d="M1203 1188 c-17 -22 -21 -42 -12 -66 7 -20 15 -23 46 -20 38 3 38 3
38 48 0 43 -1 45 -31 48 -17 2 -35 -3 -41 -10z"/>
</g>
</svg>
