<svg id="Layer_1" data-name="Layer 1" xmlns="http://www.w3.org/2000/svg" viewBox="0 0 1000 1000"><title>BritBox-Logo</title><path d="M210.5,138.126h579A72.372,72.372,0,0,1,861.874,210.5v579A72.372,72.372,0,0,1,789.5,861.874h-579A72.372,72.372,0,0,1,138.126,789.5v-579A72.372,72.372,0,0,1,210.5,138.126Z" fill="#020202" fill-rule="evenodd"/><path d="M351.793,486.261v-13.48H340.787a4.193,4.193,0,0,0-4.173,4.174v91.184h15.363V519.131a33.214,33.214,0,0,1,32.463-31.392l4.912-.074V472.744l-5.17.037a47.916,47.916,0,0,0-32.389,13.48m109.281,61.418a14.013,14.013,0,0,1-5.983-7.867,22.167,22.167,0,0,1-.7-6.832V487.886H482.2V472.707h-27.81V431.972h-11a4.193,4.193,0,0,0-4.174,4.173v36.6H422.48v15.179h16.693v48.2c0,1.662.407,16.509,14.071,24.634,10.526,6.278,22.75,9.085,23.267,9.233l4.8,1.108,3.36-14.81-4.8-1.108c-.406-.111-10.71-2.548-18.8-7.5M395.151,439.617,405.9,428.906l10.71,10.711L405.9,450.364Z" fill="#fff"/><path d="M402.463,472.744a4.193,4.193,0,0,0-4.173,4.174V568.1h15.179V472.744ZM280.071,552.96a32.5,32.5,0,1,1,32.352-32.5,32.469,32.469,0,0,1-32.352,32.5m0-80.216c-9.344,0-17.69,3.324-25.815,6.574-1.182.48-2.364.923-3.509,1.4l-3.508,1.366V431.935H236.233a4.2,4.2,0,0,0-4.173,4.21v83.613a47.719,47.719,0,0,0,47.974,48.381,47.7,47.7,0,0,0,.037-95.395" fill="#fff"/><path d="M643.517,553.071a32.611,32.611,0,1,1,32.611-32.611,32.6,32.6,0,0,1-32.611,32.611m0-80.29A47.679,47.679,0,1,0,691.2,520.46a47.679,47.679,0,0,0-47.679-47.679M539.258,552.923a32.5,32.5,0,1,1,32.353-32.5,32.445,32.445,0,0,1-32.353,32.5m0-80.179c-9.343,0-17.69,3.324-25.815,6.574-1.182.48-2.363.923-3.508,1.4l-3.509,1.366V432.009H495.42a4.178,4.178,0,0,0-4.173,4.1v83.65a47.719,47.719,0,0,0,47.975,48.381,47.7,47.7,0,0,0,.037-95.395" fill="#fff"/><path d="M767.94,480.352l-12.04-9.011L728.5,507.9l-27.366-36.562-12.04,9.011,30.025,40.108-30.025,40.145,12.04,9.011,27.366-36.6,27.4,36.6,12.04-9.011L737.915,520.46l30.025-40.108Z" fill="#fff"/></svg>