<svg xmlns="http://www.w3.org/2000/svg" viewBox="0 0 1500 933.3" style="enable-background:new 0 0 1500 933.3" xml:space="preserve"><path d="M668.2 479.9c-3.7-1.5-9.7-8.3.3-27.2l23.4-48.8c.7-1.5-1-3.3-2.1-2.1l-20.4 20.5c-9.7 10.1-26.1 38.5-29.2 43.7l-24.8 41c1.8-.1 3.4 1.4 3.4 3.2 0 .6-.1 1.2-.4 1.7L595.7 550c-5.5 9.5 4.4 16.1 5.8 13.9 35.7-57.4 56.4-52.9 56.4-52.9l11.9-27.6c.6-1.4 0-3-1.4-3.6-.1.1-.1.1-.2.1zM749.3 0C545.4 0 380.1 165.2 380.1 369c-.1 78.9 25.2 155.7 72.2 219.1 15.5-6.7 24.1-16.7 30.2-24.3l68.7-87.9c1.4-1.9 3.3-3.3 5.5-4.2l10.3-4.5 113-143.3 16.4-12.8 33.7-46.8c.9-1.2 1.9-2.3 3.1-3.2l14.7-10.7c3.6-2.6 8.5-2.7 12.2-.1l17.8 12.5c9.5 6.6 17.1 15.5 22.3 25.8L871.8 414c1.2 2.4 3.1 4.3 5.6 5.4 14 7 22.6 8.2 40.9 28.1 8.6 9.3 46 51.2 98.6 116.3 7.6 10.4 17.9 18.7 29.7 24 46.8-63.3 72.1-140 71.9-218.8-.1-203.8-165.3-369-369.2-369zM479.7 389.3l-23.9-7.8-14.8 20.4v-25.1l-24-7.8 23.9-7.8v-25.1l14.8 20.3 23.9-7.8-14.7 20.4 14.8 20.3zm-5.7 82.3-7.8 23.9-7.8-23.9h-25.2l20.4-14.8-7.8-23.9 20.4 14.8 20.4-14.8-7.8 23.9 20.4 14.8H474zm4.8-190.5 7.8 23.9-20.4-14.8-20.3 14.8 7.8-23.9-20.4-14.8h25.2l7.8-23.9 7.8 23.9h25.2l-20.5 14.8zm40.4-54.1-14.8-20.3-23.9 7.8 14.8-20.3-14.8-20.3 23.9 7.8 14.8-20.3v25.1l23.9 7.8-23.9 7.8V227zm62.9-88-7.8 23.9-7.8-23.9h-25.2l20.4-14.8-7.8-23.9 20.4 14.8 20.4-14.8-7.8 23.9 20.4 14.8h-25.2zm79.3-40.4L646.6 119V93.8L622.7 86l23.9-7.8V53.1l14.8 20.3 23.9-7.8-14.8 20.3 14.8 20.3-23.9-7.6zm100.5-23 7.8 23.9-20.4-14.8-20.4 14.8 7.8-23.9-20.4-14.8h25.2l7.8-23.9 7.8 23.9h25.2l-20.4 14.8zM852 93.8V119l-14.8-20.3-23.9 7.8L828 86.1l-14.8-20.3 23.9 7.8L852 53.1v25.1l23.9 7.8-23.9 7.8zm166.9 254.8 23.9 7.8 14.8-20.3v25.1l23.9 7.8-23.9 7.8v25.1l-14.8-20.3-23.9 7.8 14.8-20.3-14.8-20.5zm-94.7-185.7-7.8-23.9h-25.2l20.3-14.8-7.8-23.9 20.3 14.8 20.3-14.8-7.8 23.9 20.3 14.8H932l-7.8 23.9zm55.2 64.1v-25.1l-23.9-7.8 23.9-7.8v-25.2l14.8 20.3 23.9-7.8-14.8 20.3 14.8 20.3-23.9-7.8-14.8 20.6zm45.2 39.4 7.8-23.9 7.8 23.9h25.2l-20.3 14.8 7.8 23.9-20.4-14.8-20.3 14.8 7.8-23.9-20.4-14.8h25zm15.5 205.2-7.8 23.9-7.8-23.9h-25.2l20.4-14.8-7.8-23.9 20.3 14.8 20.4-14.8-7.8 23.9 20.3 14.8h-25zM883 582.2c1.8-2.6 4.7-9.6-.8-22.7l-16.3-43.9c-2.2-5.6 2.6-9 5.9-5.3 0 0 30.9 35.6 38.9 50.4l15.2 25.3c13.1.8 49.2 1.8 84 1.8-3.5-3.5-6.7-7.2-9.7-11.2-59.4-73.6-97-114.5-97.4-114.9-12-13.1-17.6-15.6-26.8-19.8-1.3-.6-2.8-1.3-4.3-2v11.2c.1.8-.4 1.4-1.2 1.5-.6.1-1.2-.3-1.4-.8l-87.3-153.3-.2-.5c-3.6-7.2-9-13.4-15.6-18.1l-8.5-6-41.6 96c5 0 9 4 9 9 0 1.2-.3 2.5-.7 3.6l-38.5 89H721c13.7 0 27.2 2.7 39.8 7.8l9.3 3.8S742 540.9 742 571.3c0 5.5.8 11 2.3 16.4H809l-3-18.2c25.4 5.7 51.1 9.9 77 12.7zm-499.6 93.6c0-59.4-63-88-137.9-88-80.1 0-153.6 35.5-180.6 90.5-7.4 14.7-11.3 30.9-11.3 47.3-.3 14.2 3.6 28.2 11.3 40.2 11.6 17.1 32.2 27.8 62.5 27.8 37.2 0 66.6-20.4 66.6-55.9 0 0 .5-9.9-11-9.9-9.4 0-11.8 6.6-11.6 9.9 1.4 27.8-15.1 50.1-44.6 50.1-33 0-46.8-28.1-46.8-58 0-61.4 46.2-102.1 94.4-119.7 22.5-8.5 46.4-12.7 70.5-12.4 54.5 0 99.1 20.9 99.1 77 0 46.8-39.4 86.7-86.4 90.2l1.9-6.3c9.6-34.4 21.5-72.1 40.7-99.9 1.1-1.7 3-4.4 5.2-7.2l-2.7-3.3c-4.1 2.5-8.1 5.3-11.8 8.3-90.3 70.4-93 268.5-213.3 268.5-4.1 0-8.3-.3-12.4-.8-25-4.1-38.2-20.9-38.2-44.2 0-4.7 1.7-11 1.7-14.6.2-6.6-5-12.2-11.7-12.4H15.4C4.7 853 .3 861.5 0 873.6c-.8 34.9 25 55.3 65 59.2 4.4.3 8.8.5 13.5.5 93.9 0 151.4-71 175.9-157.1 12.4-1.5 24.7-4 36.6-7.7 43.5-12.1 92.4-41.2 92.4-92.7zm894.1 20.6h-33l-7.4 17.3-12.9 29.2h-15.4l-4.7 9.9h16l-19.3 42.6c-13.7 30-35.2 59.4-47.6 59.4-2.7 0-4.4-1.1-4.4-3.8s.8-5.2 3.9-12.9c3.9-9.1 10.2-22.3 14.9-31.9 6.9-14 17.9-35.8 17.9-46.5 0-10.7-6.9-19.3-20.4-19.3-15.1 0-28.9 9.1-41.6 22.3l8.3-19.8h-31.1l-25.3 57.8c-10.2 20.4-30.8 54.2-43.8 54.2-2.7 0-3.9-1.7-3.9-4.4.3-2.5.9-4.9 1.9-7.2 1.1-2.5 16.2-38 16.2-38l27.5-63h-33.6l-26.7 61.3c-8.2 19-29.2 51.2-42.7 51.2-2.4.2-4.4-1.5-4.7-3.8v-1c0-3.3 2.5-9.4 4.4-13.8l14-30.8 28.9-63h-33.3l-6.6 14.3c-4.9 9.6-13.2 20.9-26.4 20.9-6.3 0-9.4-2.5-10.7-5-1.9-21.2-15.4-32.5-35.2-32.5-27.5 0-47.1 16.2-60 36-8.5 13.7-15.1 28.4-19.8 43.7-11.8 19.5-24.2 34.7-34.1 34.7-2.5 0-4.1-1.4-4.1-4.7 0-3.3 3.3-10.7 4.4-13.5l21.7-46.2c6.1-14.3 10.2-23.7 10.2-33 0-9.9-6.9-17.1-18.2-17.1-15.7 0-32.8 9.1-46.2 23.9.5-2.4.6-4.8.5-7.2 0-11-5.5-16.8-16.8-16.8-14.3 0-29.2 8.5-42.7 23.9l8.8-21.5h-30.3l-25.6 57.8c-12.1 27.2-31.7 54.2-42.7 54.2-2.5 0-4.1-1.4-4.1-4.7 0-5.2 5.8-18.2 8-23.4l33.9-76.8c2.5-5.8-13.8-9.4-34.4-9.4-21.2 0-42.9 10.5-58.9 23.9-11.3 9.3-19.5 14-23.7 14-1.3.3-2.7-.6-3-1.9 0-.2-.1-.4-.1-.6 0-4.7 11.3-17.9 11.3-28.1 0-4.7-2.5-7.7-8.8-7.7-12.1 0-26.4 11.6-36.9 23.7l8.8-21.2h-29.7l-25.6 57.8c-12.1 27.2-32.2 55.6-43.2 55.6-2.5 0-4.1-1.4-4.1-4.7 0-5.2 5.5-17.9 8.5-24.5l33.9-77c2.5-5.8-13.8-9.4-34.4-9.4-30.6 0-60.3 20.6-76 41.8-17.3 22.8-29.2 47-29.4 66.9-.3 16 8 25.9 24.5 25.9 18.4 0 33.3-14.6 41.8-25.6-.5 2.2-.9 4.4-1.1 6.6 0 11 4.4 19 17.9 19 11.8 0 27.5-9.9 40.2-25.6L411 872.8h32.2l31.7-71.8c10.5-23.4 22.3-35.5 25.6-35.5.8-.1 1.5.3 1.6 1.1v.3c0 2.5-5 9.1-5 15.1s3.3 10.7 12.1 10.7c6.9 0 14.6-3.3 21.5-7.7-16.2 22-27.3 45.1-27.3 64.1-.3 16 8 25.9 24.5 25.9 17.3 0 33.6-16.5 42.4-27.5-.3 2.6-.5 5.1-.5 7.7 0 10.7 6.1 19.8 18.4 19.8 13.8 0 24.8-8.5 38.5-25.3l-10.2 23.1h33l30.3-68.5c13.2-29.7 31.1-45.7 39.9-45.7 2.2-.2 4.2 1.4 4.4 3.6v.8c-.4 3.3-1.3 6.6-2.8 9.6L678 873.1h33.9l30.8-69.9c13.2-30 27.8-44.6 38.8-44.6 3.3 0 4.7 1.7 4.7 5.2-.3 3.8-1.3 7.6-3 11l-29.7 63.3c-2.7 6.1-4.4 12.6-5 19.3 0 9.6 5.2 18.2 20.1 18.2 19.3 0 33.9-14.6 50.4-36.3v4.7c1.4 17.3 11 32.5 36.6 32.5 30.3 0 54.8-20.9 69.6-54.2 5.6-11.7 9.3-24.3 10.7-37.2 3.3 1.7 7 2.4 10.7 2.2 5 .1 9.9-1.2 14.3-3.6l-5.2 11.3c-6.1 12.7-12.7 26.7-17.9 38.5-3.3 7-5.3 14.6-5.8 22.3 0 11.8 6.6 20.4 20.1 20.4 13.5 0 31.9-12.7 45.1-30.5h.3c-.9 3.7-1.4 7.5-1.4 11.3 0 9.9 3 19.3 16.8 19.3 16 0 28.3-11.6 40.5-26.1l-10.2 23.1h33.3l26.7-60.5c15.1-34.1 30.3-54.7 44.3-54.7 2.4-.1 4.5 1.7 4.7 4.1v.8c0 5.8-8.3 21.5-15.7 37.1-6.9 14.3-12.1 25.3-15.7 33.8-3.3 7.2-5.3 14.9-5.8 22.8 0 10.4 5.8 18.4 18.7 18.4 19.3 0 38.8-18.7 49.2-32.7-2.4 6.7-3.6 13.8-3.8 20.9 0 19.3 11.5 28.9 27.8 28.9 10.8-.1 21.3-3.5 30-9.9 12.7-8.8 22.9-22 31.4-34.1l-5.8-5.5c-8 11.3-16.8 22-25.9 28.6-4.8 4-10.8 6.4-17.1 6.6-6.9 0-11.3-3.6-11.3-12.4s4.1-20.6 10.5-36.6c.3-.3 9.4-20.6 17.9-40.2 7.2-16.5 14.3-32.5 15.7-35.8h21.7l4.4-9.9h-21.5l20.6-46.6zM338.6 855.2c-4.7 0-8-1.6-8-7.7.3-16.2 13.8-45.1 30.6-68.2 11.8-16 27.2-27.8 43.8-27.8l-21 46.7c-15.7 35.3-32.8 57-45.4 57zm205.9 0c-4.7 0-8-1.6-8.3-7.7.3-16.2 13.8-45.1 30.6-68.2 11.8-16 27.2-27.8 43.8-27.8l-20.9 46.8c-16 36-32.3 56.9-45.2 56.9zM910 764.1c-.8 17.9-16.5 61.1-35 86.9-7.4 10.5-13.8 13.5-19.3 13.5-7.7 0-9.9-6.3-8.8-15.7 1.6-16.2 15.1-54.2 33.9-80.3 8.5-11.8 14.3-16.8 20.9-16.8 6.7 0 8.6 5.5 8.3 12.4zm513.7-21.2 30.3-70h-35.9l-30.3 70h-76.3l-12.7 29.3h76.3l-30.3 70h35.9l30.3-70h76.3l12.7-29.3h-76.3z" style="fill:#0064ff"/></svg>