<?xml version="1.0" standalone="no"?>
<!DOCTYPE svg PUBLIC "-//W3C//DTD SVG 20010904//EN"
 "http://www.w3.org/TR/2001/REC-SVG-20010904/DTD/svg10.dtd">
<svg version="1.0" xmlns="http://www.w3.org/2000/svg"
 width="160.000000pt" height="160.000000pt" viewBox="0 0 160.000000 160.000000"
 preserveAspectRatio="xMidYMid meet">

<g transform="translate(0.000000,160.000000) scale(0.100000,-0.100000)"
fill="#000000" stroke="none">
<path d="M0 800 l0 -800 800 0 800 0 0 800 0 800 -800 0 -800 0 0 -800z m517
165 c21 -9 45 -23 54 -31 16 -14 15 -17 -6 -38 -44 -44 -46 -162 -6 -217 26
-35 22 -43 -29 -69 -49 -25 -112 -25 -165 -1 -47 21 -77 51 -52 51 20 0 37 30
37 65 0 19 -14 40 -45 71 -49 47 -52 55 -29 74 13 11 16 10 21 -8 3 -13 13
-22 24 -22 26 0 25 44 -1 63 -19 13 -19 15 -2 30 50 45 135 59 199 32z m197
-71 c3 -9 6 -34 6 -55 0 -24 4 -38 10 -34 6 3 10 18 10 33 0 46 11 72 31 72
19 0 21 -4 35 -85 8 -42 9 -39 19 38 l6 47 100 0 99 0 0 -125 0 -125 -25 0
-25 0 0 106 c0 95 -2 105 -17 102 -16 -3 -18 -17 -21 -106 -2 -94 -4 -102 -22
-102 -19 0 -20 7 -20 100 0 82 -3 102 -15 107 -23 8 -26 2 -36 -84 -15 -120
-17 -125 -42 -121 -19 3 -23 11 -29 62 -4 32 -10 61 -12 63 -2 3 -7 -25 -11
-61 -7 -61 -9 -66 -31 -66 -13 0 -24 6 -24 13 0 6 -7 57 -15 112 -8 55 -15
106 -15 113 0 18 37 15 44 -4z m410 -44 l9 -55 11 55 c11 52 13 55 41 55 l30
0 3 -122 3 -123 -26 0 c-24 0 -25 3 -26 63 l-1 62 -12 -60 c-7 -41 -16 -61
-27 -63 -13 -2 -18 11 -26 60 l-10 63 -2 -62 c-1 -56 -3 -63 -21 -63 -19 0
-20 7 -20 126 l0 125 32 -3 c31 -3 33 -6 42 -58z m216 41 c0 -14 -8 -21 -27
-23 -22 -2 -29 -9 -31 -30 -3 -21 1 -27 20 -30 31 -4 32 -42 1 -46 -18 -3 -23
-10 -23 -33 0 -26 3 -29 30 -29 23 0 30 -4 30 -20 0 -17 -7 -20 -50 -20 l-50
0 0 125 0 125 50 0 c43 0 50 -3 50 -19z m-710 -40 c5 -11 10 -41 10 -66 0 -78
-39 -116 -60 -59 -30 78 15 190 50 125z m-324 -119 c4 -13 1 -29 -5 -35 -17
-17 -51 26 -51 65 l0 29 25 -18 c14 -10 28 -28 31 -41z m1074 -52 c0 -5 -2
-10 -4 -10 -3 0 -8 5 -11 10 -3 6 -1 10 4 10 6 0 11 -4 11 -10z"/>
<path d="M372 783 c3 -111 5 -128 20 -131 14 -3 17 6 20 55 3 51 6 58 25 61
20 3 22 -1 25 -55 3 -50 6 -58 23 -58 19 0 20 8 23 128 l3 128 -23 -3 c-20 -3
-23 -10 -26 -50 -3 -43 -5 -48 -28 -48 -22 0 -24 4 -24 50 0 44 -3 50 -20 50
-20 0 -20 -5 -18 -127z"/>
</g>
</svg>
