<?xml version="1.0" standalone="no"?>
<!DOCTYPE svg PUBLIC "-//W3C//DTD SVG 20010904//EN"
 "http://www.w3.org/TR/2001/REC-SVG-20010904/DTD/svg10.dtd">
<svg version="1.0" xmlns="http://www.w3.org/2000/svg"
 width="128.000000pt" height="128.000000pt" viewBox="0 0 128.000000 128.000000"
 preserveAspectRatio="xMidYMid meet">

<g transform="translate(0.000000,128.000000) scale(0.100000,-0.100000)"
fill="#000000" stroke="none">
<path d="M0 640 l0 -640 640 0 640 0 0 640 0 640 -640 0 -640 0 0 -640z m640
490 c0 -17 -7 -20 -42 -20 -41 0 -148 -28 -148 -39 1 -25 18 -29 58 -16 96 34
212 28 307 -14 31 -14 43 -24 39 -35 -5 -12 -12 -11 -49 5 -264 117 -565 -81
-565 -371 0 -98 51 -226 114 -285 56 -52 79 -65 94 -53 9 8 13 8 9 2 -4 -7 2
-14 15 -17 12 -4 19 -9 16 -12 -3 -4 -15 -2 -26 4 -15 8 -23 7 -32 -4 -16 -19
-16 -19 45 -46 67 -30 211 -38 286 -16 51 15 69 15 69 -2 0 -12 -110 -41 -153
-41 -31 0 -37 -4 -37 -21 0 -18 -4 -20 -47 -14 -220 30 -396 183 -442 385 -15
63 -13 186 3 245 52 197 222 349 421 375 33 4 61 8 63 9 1 0 2 -8 2 -19z m108
-171 c94 -32 190 -128 217 -217 7 -23 5 -23 -52 -21 l-58 3 0 -85 0 -84 58 -5
58 -5 -31 -62 c-35 -70 -88 -120 -166 -155 -39 -18 -66 -23 -134 -22 -113 0
-171 25 -245 106 -237 255 23 658 353 547z m392 -244 c0 -10 -10 -15 -34 -15
-25 0 -35 -5 -39 -20 -4 -17 0 -20 29 -20 35 0 54 -20 54 -59 0 -23 -35 -51
-65 -51 -32 0 -63 26 -49 40 8 8 14 9 18 1 10 -16 56 -13 62 4 10 25 -16 47
-48 40 -28 -6 -28 -6 -28 39 l0 45 48 4 c26 2 48 4 50 5 1 1 2 -5 2 -13z
m-160 -40 c0 -11 -12 -15 -45 -15 -33 0 -45 4 -45 15 0 11 12 15 45 15 33 0
45 -4 45 -15z m0 -70 c0 -11 -12 -15 -45 -15 -33 0 -45 4 -45 15 0 11 12 15
45 15 33 0 45 -4 45 -15z m-65 -255 c10 -16 -102 -82 -127 -74 -13 4 -18 2
-14 -4 9 -15 -24 -23 -59 -14 l-30 9 37 5 c41 7 143 55 159 75 13 15 26 17 34
3z m-220 -100 c23 -7 8 -9 -65 -7 -52 2 -103 8 -114 14 -24 13 135 8 179 -7z"/>
<path d="M500 708 c0 -15 9 -18 46 -18 l46 0 -46 -51 c-25 -28 -46 -60 -46
-70 0 -17 8 -19 70 -19 63 0 70 2 70 20 0 17 -7 20 -46 20 l-46 0 46 54 c25
30 46 59 46 64 0 6 -32 12 -70 14 -61 3 -70 1 -70 -14z"/>
<path d="M680 638 l0 -88 65 0 c58 0 65 2 65 20 0 17 -7 20 -48 20 -37 0 -49
4 -49 15 0 11 12 15 49 15 41 0 48 3 48 20 0 17 -7 20 -48 20 -37 0 -49 4 -49
15 0 11 12 15 49 15 40 0 49 3 46 16 -2 12 -17 16 -66 17 l-62 2 0 -87z"/>
<path d="M865 324 c-18 -16 -22 -22 -9 -15 18 9 53 42 43 41 -2 -1 -17 -12
-34 -26z"/>
</g>
</svg>
